# xmcd
#
# Track frame offsets: 
#        150
#        571
#        15472
#        25426
#        33997
#        46914
#        62929
#        71379
#        86901
#        95591
#        105350
#        127247
#        134908
#        151939
#        167386
#        175689
#        185286
#        202676
#        213504
#        228085
#        237465
#        250578
#
# Disc length: 3485 seconds
#
# Revision: 0
# Processed by: cddbd v1.5.2PL0 Copyright (c) Steve Scherf et al.
# Submitted via: ExactAudioCopyFreeDBPlugin 1.0
#
DISCID=1d0d9b16
DTITLE=Virgis Stakenas - Siaulai_mc CD-06
DYEAR=1991
DGENRE=Country
TTITLE0=Intro
TTITLE1=Ugninis lietus
TTITLE2=Arbatos bliuzas
TTITLE3=Amziuos
TTITLE4=Biciuliai
TTITLE5=Pro sali
TTITLE6=Avis
TTITLE7=03
TTITLE8=Manekene
TTITLE9=Uzdaryk duris
TTITLE10=Kareiveli
TTITLE11=Lietuvi
TTITLE12=Stiliaga
TTITLE13=Vaistas nuo senatves
TTITLE14=Anam svieti
TTITLE15=Pavasaris
TTITLE16=Jaunyste
TTITLE17=Per anksti-per velai
TTITLE18=Yes
TTITLE19=Vienas-du-trys
TTITLE20=Rytas
TTITLE21=Keliai, masinos, zmones
EXTD=
EXTT0=
EXTT1=
EXTT2=
EXTT3=
EXTT4=
EXTT5=
EXTT6=
EXTT7=
EXTT8=
EXTT9=
EXTT10=
EXTT11=
EXTT12=
EXTT13=
EXTT14=
EXTT15=
EXTT16=
EXTT17=
EXTT18=
EXTT19=
EXTT20=
EXTT21=
PLAYORDER=
